<?xml version="1.0" encoding="UTF-8" standalone="no"?>
<svg enable-background="new" viewBox="0 0 450.16989 478.26294" xmlns="http://www.w3.org/2000/svg" xmlns:xlink="http://www.w3.org/1999/xlink">
<defs>
<linearGradient id="linearGradient3520">
<stop offset="0"/>
<stop offset="1" stop-opacity="0"/>
</linearGradient>
<linearGradient gradientUnits="userSpaceOnUse" id="linearGradient3250" x1="481.49543" x2="500.21176" y1="404.25242" y2="342.4721">
<stop offset="0" stop-color="#333"/>
<stop offset="1" stop-opacity="0"/>
</linearGradient>
<linearGradient gradientUnits="userSpaceOnUse" id="linearGradient3239" x1="404.70391" x2="295.65149" xlink:href="#linearGradient3520" y1="551.22423" y2="508.45263"/>
<linearGradient gradientUnits="userSpaceOnUse" id="linearGradient3242" x1="521.25209" x2="635.80903" xlink:href="#linearGradient3520" y1="602.74052" y2="624.11554"/>
<radialGradient cx="253.14085" cy="470.03119" gradientTransform="matrix(1,0,0,.19711,0,377.3826)" gradientUnits="userSpaceOnUse" id="radialGradient3172" r="114.36129">
<stop offset="0" stop-color="#333"/>
<stop offset="1" stop-color="#333" stop-opacity="0"/>
</radialGradient>
<radialGradient cx="478.60846" cy="550.29456" gradientUnits="userSpaceOnUse" id="radialGradient3245" r="225.0625">
<stop offset="0" stop-color="#fff"/>
<stop offset=".4702" stop-color="#fff"/>
<stop offset="1" stop-color="#d6d6d6"/>
</radialGradient>
<radialGradient cx="477.48652" cy="544.29734" gradientUnits="userSpaceOnUse" id="radialGradient3248" r="206.08806">
<stop offset="0" stop-color="#6a6a6a"/>
<stop offset="1"/>
</radialGradient>
</defs>
<g transform="translate(-236.97296,-366.478)">
<path d="m366.00214,470.03119a112.86129,21.04193 0 1,1 -225.72258,0 112.86129,21.04193 0 1,1 225.72258,0z" fill="url(#radialGradient3172)" fill-rule="evenodd" transform="matrix(1.76703,0,0,3.28947,-6.89187,-770.63016)"/>
<path d="m687.14286,591.56295c0,124.24689-100.83806,225.08495-225.08495,225.08495s-225.08495-100.83806-225.08495-225.08495 100.83805-225.08495 225.08495-225.08495 225.08495,100.83805 225.08495,225.08495z" fill="url(#radialGradient3248)" fill-rule="evenodd"/>
<path d="m462.04847,366.48162c-49.12805,0-94.57643,15.78496-131.59375,42.53125-16.11579,19.48961-27.40625,39-27.40625,39l-20.5625,7.875c-28.55882,37.73568-45.5,84.74822-45.5,135.6875 0,4.75815.14614,9.47117.4375,14.15625 5.11583,9.13972 8.9375,14.96874 8.9375,14.96875l-2.625,25.6875c14.70149,58.67954 52.4553,108.24261 103.0625,138.5 3.61585,2.3383 6.63613,3.7538 9.95419,5.6308-1.76052-1.6631-2.30279-2.108-3.45419-3.162-13.2473-13.7018-24.40625-29.7188-24.40625-29.7188l32.03125-29.46875c1e-005,1e-005 20.59409,15.56507 43.71875,23.625s48.78125,8.62495 48.78125,8.62495l15.875,40.75c0,0-14.02787,7.1945-33.9375,10.7188-3.56519.6311-7.333,1.1444-11.09375,1.5625 12.288,2.0813 24.90327,3.1875 37.78125,3.1875 52.04257,0 99.99002-17.684 138.125-47.375 11.92991-15.98524 19.75001-29.71876 19.75-29.71875l17.375-6.8125c30.83273-38.2231 49.436-86.71943 49.8125-139.53125-6.12407-18.15827-12.81249-28.81248-12.8125-28.8125s1.70719-16.58244-.69064-34.84754c-.37624-2.86596 1.54952-1.846 3.86731-3.40223-.68742-2.5948-3.18496-10.30609-4.44499-13.98838-4.96028-14.49589-9.83936-21.41177-13.04418-27.82435 6.24328,3.48764-.02453-.01889-.03125-.03125-38.13036-70.16276-112.48651-117.81251-197.90625-117.8125zm27.21875,8.5625c18.70387.25577 38.21875,6.3125 38.21875,6.3125s22.17311,8.52059 38,20.5625 25.3125,27.59375 25.3125,27.59375l-40.25,27.8125c1e-005-3e-005-21.66626-14.84249-44.3125-22.84375s-46.28125-9.15625-46.28125-9.15625l-11.40625-41.53125c-1e-005,0 17.2634-8.11024 37-8.71875 1.23354-.03803 2.47183-.0483 3.71875-.03125zm-131.53125,111.1875c13.82046.0635 25.3125,1.71875 25.3125,1.71875l20.8125,88.4375-66.8125,63.625c0,0-20.86317-13.23662-35.90625-26.1875s-24.28125-25.625-24.28125-25.625 2.71584-25.65389 8.84375-47.71875 15.6875-40.53125 15.6875-40.53125 16.51864-9.50668 36.9375-12.5c6.38089-.93542 13.12422-1.24761 19.40625-1.21875zm216.53125,63.15625c-1e-005,0 18.83767,8.25331 34.03125,20.40625s26.75,28.21875 26.75,28.21875-1.07773,22.00055-8.34375,44.875-20.71875,46.625-20.71875,46.625-18.77755,6.89075-38.59375,8.75-40.6875-1.3125-40.6875-1.3125l-10.34375-43.28125-10.65625-44.5c0,0 14.14166-17.05226 31.28125-32s37.28125-27.78125 37.28125-27.78125z" fill="url(#radialGradient3245)" fill-rule="evenodd"/>
<path d="m633.37377,598.67637c0,0-1.05853,21.44345-8.13637,43.7255s-20.17505,45.40273-20.17505,45.40273-18.2965,6.72426-37.5995,8.53537-39.61253-1.29098-39.61253-1.29098l-10.08838-42.15011-10.37144-43.33281c0,0 13.77207-16.63224 30.46778-31.19286s36.31506-27.04965 36.31506-27.04965 18.34722,8.05197 33.14732,19.89019 26.05311,27.46262 26.05311,27.46262z" fill="none" stroke="url(#linearGradient3242)" stroke-linejoin="round" stroke-width="4.87051"/>
<path d="m337.13219,638.06303c0,0-20.33709-12.90572-35.00115-25.5303s-23.6551-24.96801-23.6551-24.96801 2.63677-24.99641 8.61028-46.50533 15.28378-39.5304 15.28378-39.5304 16.09843-9.25504 36.00283-12.17294 43.61477.50133 43.61477.50133l20.2793,86.21081-65.13471,61.99484z" fill="none" stroke="url(#linearGradient3239)" stroke-linejoin="round" stroke-width="4.87402"/>
<path d="m526.54287,385.59247c0,0 19.46417,7.49626 33.36569,18.07324s22.24039,24.23473 22.24039,24.23473l-35.3569,24.43107c0,0-19.03147-13.05403-38.92281-20.08194s-47.71344-9.79746-47.71344-9.79746l-9.3194-36.84304c0,0 19.39501-6.76894 36.73059-7.30338s38.97588,7.28678 38.97588,7.28678z" fill="none" stroke="url(#linearGradient3250)" stroke-width="5.01581"/>
<path d="m382.00558,489.15386c0,0 36.18673-48.08059 78.43673-64.33059" fill="none" stroke="#666"/>
<path d="m552.77779,456.09916c0,0 26.98483,42.92633 23.48483,91.92633" fill="none" stroke="#ececec" stroke-width="3"/>
<path d="m550.3743,456.61356c0,0 27.57582,44.37608 24.07582,93.37608" fill="none" stroke="#666"/>
<path d="m587.79847,429.25005c0,0 59.78332,23.59995 86.03332,98.34995" fill="none" stroke="#666"/>
<path d="m635.41698,597.88856c0,0 21.04441-1.63477 39.42918-32.74745" fill="none" stroke="#666"/>
<path d="m620.39371,739.32037c0,0 2.92081-18.12891-14.52125-50.95295" fill="none" stroke="#666"/>
<path d="m453.66772,760.93427c0,0 32.35014-8.57367 73.36233-65.14227" fill="none" stroke="#666"/>
<path d="m336.81833,639.22348c0,0-1.94454,50.38132 23.15775,89.97932" fill="none" stroke="#666"/>
<path d="m328.87631,757.90465c0,0-7.42957.09236-35.54505-16.85775" fill="none" stroke="#666"/>
<path d="m277.33297,588.13499c0,0-20.14855,8.46346-31.00149,31.91127" fill="none" stroke="#666"/>
<path d="m302.69795,448.248c0,0-7.23157,27.91231-.94794,51.36314" fill="none" stroke="#666"/>
<path d="m326.91884,412.59576c0,0 60.05418-50.89505 121.21891-28.26764" fill="none" stroke="#666"/>
<path d="m469.14956,801.21746c0,0 52.38635,13.45104 133.18737-34.23303" fill="none" stroke="#666"/>
<path d="m382.20012,485.5451c0,0 30.09054-41.4415 74.34054-61.3165" fill="none" stroke="#f2f2f2" stroke-linecap="square" stroke-width="3"/>
<path d="m454.49019,762.66727c0,0 30.8224-5.9461 71.83459-62.51467" fill="none" stroke="#fff" stroke-width="3"/>
<path d="m334.79244,640.34296c0,0-1.94454,50.39572 23.15775,89.99372" fill="none" stroke="#fff" stroke-width="3"/>
<path d="m404.34702,576.55614c0,0 26.33973,6.18718 101.29305,32.70369" fill="none" stroke="#999"/>
<path d="m404.34702,575.28087c0,0 26.33973,6.18718 101.29305,32.70369" fill="none" stroke="#ececec"/>
</g>
</svg>
